<?xml version="1.0" encoding="utf-8"?>
<!-- Generator: Adobe Illustrator 26.3.1, SVG Export Plug-In . SVG Version: 6.00 Build 0)  -->
<svg version="1.1" xmlns="http://www.w3.org/2000/svg" xmlns:xlink="http://www.w3.org/1999/xlink" x="0px" y="0px"
	 viewBox="0 0 336.25 336.25" style="enable-background:new 0 0 336.25 336.25;" xml:space="preserve">
<style type="text/css">
	.st0{fill:#E60019;}
	.st1{fill:#FFFFFF;}
	.st2{filter:url(#Adobe_OpacityMaskFilter);}
	.st3{enable-background:new    ;}
	.st4{mask:url(#SVGID_1_);}
	.st5{clip-path:url(#SVGID_00000094594392853646760950000006792216586289834164_);}
	.st6{clip-path:url(#SVGID_00000048477911358564484620000017618626892807685049_);fill:#FFFFFF;}
</style>
<g id="Calque_1">
</g>
<g id="_x32_.2">
	<rect x="68.1" y="68.6" class="st0" width="200.05" height="200.05"/>
	<path class="st1" d="M230.27,158.57c0-22.36-17-23.94-20.56-23.94c-5.53,0-10.86,1.15-16.47,3.36l-0.4,5.89
		c2.18-1.02,9.18-4.03,16.16-4.03c5.49,0,9.72,1.84,12.59,5.48c-18.9,9.94-30.18,17.94-31.88,24.57
		c-4.84,3.27-13.36,7.05-20.95,7.05c-8.08,0-11.56-3.49-13.07-5.52c20.74-13.95,31.49-22,30.17-28.36
		c-1.18-5.73-9.7-8.42-17.34-8.42c-7.81,0-13.18,3.37-15.72,5.99c-4.08,4.21-6.03,10.45-5.78,18.55c0.11,3.54,0.81,7.23,1.98,10.46
		c-3.18,2.07-11.85,7.31-21.8,7.31c-11.82,0-16.68-9.23-16.68-18.55c0-9.03,4.54-18.56,16.68-18.56c6.83,0,13.68,2.88,16.02,3.96
		l-0.39-5.88c-4.41-1.72-10.21-3.28-15.23-3.28c-20.1,0-21.76,16.87-21.66,23.74c-0.09,6.89,1.75,23.76,21.48,23.76
		c11.94,0,22.08-6.55,23.93-7.75c1.28,2.24,6.36,7.75,17.35,7.75c8.7,0,18.35-4.33,21.57-6.41c1.97,2.64,6.01,6.42,18.33,6.42
		c8.14,0,13.3-2.82,16.54-6.71c0.06,2.05,0.13,4.04,0.23,5.57l4.93,0.76C230.14,176.64,230.27,158.84,230.27,158.57 M151.82,161.4
		c-0.02-0.1-1.37-10.56,4.19-16.95c2.88-3.31,7.15-4.98,12.66-4.98c5.94,0,10.93,2.07,11.44,4.45c0.38,1.78-1.3,4.06-8.98,10.22
		c-0.08,0.07-7.84,6.65-17.86,12.6C152.64,165.14,152.15,163.34,151.82,161.4 M221.28,172.34c-2.88,3.31-7.22,4.76-12.74,4.8
		c-12.57,0.11-13.79-4.66-13.79-4.66c-1.3-2.92,2.94-8.82,29.21-22.74c0.64,1.61,1.18,3.69,1.51,5.65
		C225.49,155.5,226.85,165.95,221.28,172.34"/>
	<defs>
		<filter id="Adobe_OpacityMaskFilter" filterUnits="userSpaceOnUse" x="110.83" y="197.75" width="114.58" height="4.88">
			<feFlood  style="flood-color:white;flood-opacity:1" result="back"/>
			<feBlend  in="SourceGraphic" in2="back" mode="normal"/>
		</filter>
	</defs>
	<mask maskUnits="userSpaceOnUse" x="110.83" y="197.75" width="114.58" height="4.88" id="SVGID_1_">
		<g class="st2">
			<g class="st3">
			</g>
		</g>
	</mask>
	<g class="st4">
		<g>
			<defs>
				<rect id="SVGID_00000180343361081625135520000014450997342052923317_" x="110.83" y="197.75" width="114.58" height="4.88"/>
			</defs>
			<use xlink:href="#SVGID_00000180343361081625135520000014450997342052923317_"  style="overflow:visible;fill:#FFFFFF;"/>
			<clipPath id="SVGID_00000036242972448590770490000003575848021369470382_">
				<use xlink:href="#SVGID_00000180343361081625135520000014450997342052923317_"  style="overflow:visible;"/>
			</clipPath>
			<g style="clip-path:url(#SVGID_00000036242972448590770490000003575848021369470382_);">
				<defs>
					<rect id="SVGID_00000003102156919595678960000009319485542347140003_" x="110.83" y="197.75" width="114.58" height="4.88"/>
				</defs>
				<use xlink:href="#SVGID_00000003102156919595678960000009319485542347140003_"  style="overflow:visible;fill:#FFFFFF;"/>
				<clipPath id="SVGID_00000119828886612005133750000014167121818845695393_">
					<use xlink:href="#SVGID_00000003102156919595678960000009319485542347140003_"  style="overflow:visible;"/>
				</clipPath>
				
					<rect x="110.83" y="197.75" style="clip-path:url(#SVGID_00000119828886612005133750000014167121818845695393_);fill:#FFFFFF;" width="114.58" height="4.88"/>
			</g>
		</g>
	</g>
</g>
</svg>
