<?xml version="1.0" encoding="iso-8859-1"?>
<!-- Generator: Adobe Illustrator 27.0.1, SVG Export Plug-In . SVG Version: 6.00 Build 0)  -->
<svg version="1.1" id="Layer_1" xmlns="http://www.w3.org/2000/svg" xmlns:xlink="http://www.w3.org/1999/xlink" x="0px" y="0px"
	 viewBox="0 0 1135.534 570.492" style="enable-background:new 0 0 1135.534 570.492;" xml:space="preserve">
<g>
	<rect y="0" style="fill:#E50019;" width="570.492" height="570.492"/>
	<g>
		<path style="fill:#FFFFFF;" d="M462.469,256.566c0-63.759-48.481-68.272-58.633-68.272c-15.761,0-30.971,3.275-46.98,9.586
			l-1.129,16.799c6.228-2.923,26.185-11.493,46.078-11.493c15.663,0,27.732,5.252,35.896,15.62
			c-53.899,28.353-86.055,51.149-90.906,70.064c-13.796,9.327-38.108,20.091-59.734,20.091c-23.049,0-32.955-9.953-37.276-15.73
			c59.144-39.789,89.8-62.744,86.045-80.864c-3.379-16.35-27.672-24.023-49.435-24.023c-22.278,0-37.576,9.614-44.819,17.081
			c-11.643,12.008-17.188,29.808-16.477,52.891c0.313,10.093,2.299,20.614,5.657,29.838c-9.07,5.899-33.782,20.839-62.156,20.839
			c-33.701,0-47.564-26.333-47.564-52.909c0-25.763,12.955-52.93,47.564-52.93c19.465,0,39.018,8.216,45.678,11.306l-1.124-16.767
			c-12.564-4.91-29.11-9.35-43.423-9.35c-57.31,0-62.04,48.105-61.78,67.711c-0.26,19.642,4.978,67.745,61.251,67.745
			c34.05,0,62.965-18.692,68.24-22.089c3.655,6.376,18.142,22.096,49.464,22.096c24.801,0,52.332-12.338,61.517-18.281
			c5.628,7.531,17.137,18.318,52.264,18.318c23.218,0,37.933-8.054,47.156-19.129c0.175,5.833,0.385,11.513,0.652,15.882
			l14.056,2.166C462.08,308.114,462.469,257.341,462.469,256.566 M238.76,264.652c-0.045-0.298-3.92-30.115,11.962-48.333
			c8.225-9.427,20.375-14.206,36.097-14.206c16.951,0,31.162,5.903,32.629,12.696c1.097,5.078-3.71,11.586-25.612,29.131
			c-0.226,0.194-22.365,18.976-50.942,35.932C241.086,275.303,239.697,270.175,238.76,264.652 M436.828,295.848
			c-8.225,9.429-20.589,13.566-36.316,13.702c-35.839,0.312-39.328-13.283-39.328-13.283c-3.71-8.333,8.385-25.154,83.296-64.853
			c1.831,4.603,3.373,10.53,4.31,16.105C448.837,247.816,452.716,277.631,436.828,295.848"/>
		<g>
			<g>
				<g>
					
						<rect id="SVGID_00000026841645350133325030000014407722828219093936_" x="121.864" y="368.295" style="fill:#FFFFFF;" width="326.755" height="13.903"/>
				</g>
				<g>
					<defs>
						<rect id="SVGID_1_" x="121.864" y="368.295" width="326.755" height="13.903"/>
					</defs>
					<clipPath id="SVGID_00000045604738642391066250000003241993774481138615_">
						<use xlink:href="#SVGID_1_"  style="overflow:visible;"/>
					</clipPath>
					<g style="clip-path:url(#SVGID_00000045604738642391066250000003241993774481138615_);">
						<g>
							
								<rect id="SVGID_00000008828386662164726280000012105014308276932791_" x="121.864" y="368.295" style="fill:#FFFFFF;" width="326.755" height="13.903"/>
						</g>
						<g>
							<defs>
								
									<rect id="SVGID_00000065753081714359550490000009914605447526793869_" x="121.864" y="368.295" width="326.755" height="13.903"/>
							</defs>
							<clipPath id="SVGID_00000047060643336080256270000017323003180496449696_">
								<use xlink:href="#SVGID_00000065753081714359550490000009914605447526793869_"  style="overflow:visible;"/>
							</clipPath>
							
								<rect x="121.864" y="368.295" style="clip-path:url(#SVGID_00000047060643336080256270000017323003180496449696_);fill:#FFFFFF;" width="326.755" height="13.903"/>
						</g>
					</g>
				</g>
			</g>
		</g>
	</g>
	<polygon style="fill:#E50019;" points="1135.534,569.921 932.494,569.921 932.494,555.325 1120.938,555.325 1120.938,366.881 
		1135.534,366.881 	"/>
</g>
<g>
	<path style="fill:#E50019;" d="M698.893,142.012v184.667h-22.709V142.012H698.893z"/>
	<path style="fill:#E50019;" d="M745.805,163.223c-2.994-2.995-4.492-6.652-4.492-10.98c0-4.324,1.498-7.985,4.492-10.98
		c2.994-2.994,6.652-4.491,10.98-4.491c4.156,0,7.692,1.497,10.605,4.491c2.909,2.995,4.367,6.656,4.367,10.98
		c0,4.328-1.458,7.985-4.367,10.98c-2.913,2.994-6.449,4.491-10.605,4.491C752.458,167.715,748.799,166.218,745.805,163.223z
		 M767.765,189.925v136.753h-22.709V189.925H767.765z"/>
	<path style="fill:#E50019;" d="M834.142,323.559c-8.321-3.576-14.891-8.566-19.714-14.974c-4.828-6.402-7.487-13.764-7.986-22.085
		H829.9c0.663,6.824,3.868,12.396,9.607,16.72c5.739,4.328,13.266,6.488,22.584,6.488c8.648,0,15.473-1.91,20.463-5.739
		c4.991-3.825,7.487-8.648,7.487-14.474c0-5.989-2.664-10.438-7.986-13.351c-5.326-2.909-13.562-5.779-24.705-8.61
		c-10.149-2.659-18.428-5.365-24.83-8.11c-6.406-2.744-11.896-6.819-16.47-12.228c-4.578-5.404-6.863-12.517-6.863-21.336
		c0-6.987,2.078-13.391,6.239-19.216c4.156-5.821,10.063-10.438,17.718-13.85c7.65-3.408,16.385-5.116,26.202-5.116
		c15.137,0,27.365,3.829,36.684,11.479c9.315,7.654,14.307,18.135,14.974,31.443h-22.709c-0.499-7.151-3.369-12.891-8.609-17.219
		c-5.241-4.324-12.271-6.488-21.087-6.488c-8.153,0-14.642,1.747-19.465,5.24c-4.827,3.494-7.237,8.071-7.237,13.726
		c0,4.491,1.454,8.195,4.367,11.104c2.909,2.913,6.57,5.24,10.98,6.987c4.406,1.747,10.52,3.704,18.342,5.864
		c9.814,2.663,17.8,5.284,23.956,7.861c6.153,2.581,11.437,6.449,15.847,11.604c4.406,5.159,6.695,11.896,6.862,20.214
		c0,7.486-2.082,14.225-6.238,20.213c-4.16,5.989-10.024,10.692-17.593,14.1c-7.572,3.408-16.264,5.116-26.078,5.116
		C851.86,328.924,842.46,327.134,834.142,323.559z"/>
	<path style="fill:#E50019;" d="M979.377,208.642v80.604c0,6.656,1.412,11.354,4.242,14.1c2.827,2.745,7.736,4.118,14.724,4.118
		h16.72v19.215H994.6c-12.646,0-22.128-2.909-28.448-8.734c-6.325-5.821-9.483-15.386-9.483-28.698v-80.604H938.95v-18.717h17.718
		v-34.438h22.709v34.438h35.686v18.717h-35.686V208.642z"/>
</g>
</svg>
