<?xml version="1.0" encoding="UTF-8" standalone="no"?>
<!-- Generator: Adobe Illustrator 22.1.0, SVG Export Plug-In . SVG Version: 6.00 Build 0)  -->

<svg
   xmlns:dc="http://purl.org/dc/elements/1.1/"
   xmlns:cc="http://creativecommons.org/ns#"
   xmlns:rdf="http://www.w3.org/1999/02/22-rdf-syntax-ns#"
   xmlns:svg="http://www.w3.org/2000/svg"
   xmlns="http://www.w3.org/2000/svg"
   xmlns:sodipodi="http://sodipodi.sourceforge.net/DTD/sodipodi-0.dtd"
   xmlns:inkscape="http://www.inkscape.org/namespaces/inkscape"
   version="1.1"
   id="Calque_1"
   x="0px"
   y="0px"
   viewBox="0 0 147.60001 90.110596"
   xml:space="preserve"
   sodipodi:docname="logo bleu.svg"
   width="147.60001"
   height="90.110596"
   inkscape:version="0.92.2 (5c3e80d, 2017-08-06)"><metadata
     id="metadata73"><rdf:RDF><cc:Work
         rdf:about=""><dc:format>image/svg+xml</dc:format><dc:type
           rdf:resource="http://purl.org/dc/dcmitype/StillImage" /></cc:Work></rdf:RDF></metadata><defs
     id="defs71" /><sodipodi:namedview
     pagecolor="#ffffff"
     bordercolor="#666666"
     borderopacity="1"
     objecttolerance="10"
     gridtolerance="10"
     guidetolerance="10"
     inkscape:pageopacity="0"
     inkscape:pageshadow="2"
     inkscape:window-width="1920"
     inkscape:window-height="1097"
     id="namedview69"
     showgrid="false"
     inkscape:zoom="4.4533333"
     inkscape:cx="40.268395"
     inkscape:cy="27.989284"
     inkscape:window-x="0"
     inkscape:window-y="28"
     inkscape:window-maximized="1"
     inkscape:current-layer="Calque_1" /><style
     type="text/css"
     id="style2">
	.st0{fill:#2A2E46;}
	.st1{fill:#E84E0F;}
</style><g
     id="g66"
     transform="translate(-1.2,-0.88940505)"><path
       class="st0"
       d="M 22.3,46.6 C 11,46.6 1.8,37.4 1.8,26 V 1.7 h 9.1 V 26 c 0,6.3 5.1,11.4 11.4,11.4 6.3,0 11.4,-5.1 11.4,-11.4 V 1.7 h 9.1 V 26 c 0,11.4 -9.2,20.6 -20.5,20.6 z"
       id="path4"
       inkscape:connector-curvature="0"
       style="fill:#2a2e46" /><g
       id="g8"><polygon
         class="st0"
         points="148.8,45.9 123.2,1.7 97.7,45.9 108.3,45.9 123.2,20 138.2,45.9 "
         id="polygon6"
         style="fill:#2a2e46" /></g><path
       class="st0"
       d="M 73.5,46.6 C 69.2,46.6 64.9,45.4 61.1,42.9 50.5,36 47.5,21.8 54.4,11.3 61.3,0.7 75.4,-2.3 86,4.6 l -5,7.7 c -6.3,-4.1 -14.8,-2.3 -18.9,4 -4.1,6.3 -2.3,14.8 4,18.9 6.3,4.1 14.8,2.3 18.9,-4 l 7.7,5 C 88.2,42.9 80.9,46.6 73.5,46.6 Z"
       id="path10"
       inkscape:connector-curvature="0"
       style="fill:#2a2e46" /><rect
       x="73.199997"
       y="19.200001"
       class="st0"
       width="20.299999"
       height="9.1000004"
       id="rect12"
       style="fill:#2a2e46" /><g
       id="g16"><polygon
         class="st1"
         points="134.1,58.5 123.2,39.7 112.4,58.5 "
         id="polygon14"
         style="fill:#e84e0f" /></g><g
       id="g64"><path
         class="st0"
         d="m 3.3,67.4 c -1,-1 -1.5,-2.2 -1.5,-3.7 v -8.1 h 2.8 v 8 c 0,0.8 0.2,1.4 0.7,1.9 0.5,0.5 1.1,0.7 1.8,0.7 C 7.8,66.2 8.5,66 9,65.5 9.5,65 9.7,64.4 9.7,63.6 v -8 h 2.8 v 8.1 c 0,1.5 -0.5,2.8 -1.5,3.7 -1,1 -2.3,1.5 -3.9,1.5 C 5.6,68.8 4.3,68.4 3.3,67.4 Z"
         id="path18"
         inkscape:connector-curvature="0"
         style="fill:#2a2e46" /><path
         class="st0"
         d="m 23.8,59.4 c 0.7,0.8 1,1.8 1,3.1 v 6.1 h -2.7 v -5.7 c 0,-1.5 -0.6,-2.3 -1.7,-2.3 -0.5,0 -0.9,0.1 -1.2,0.3 -0.3,0.2 -0.6,0.5 -0.8,0.9 -0.2,0.4 -0.3,0.9 -0.3,1.4 v 5.3 h -2.7 v -10 h 1.9 l 0.5,1.2 c 0.2,-0.2 0.4,-0.4 0.6,-0.6 0.2,-0.2 0.5,-0.3 0.8,-0.5 0.3,-0.1 0.6,-0.2 0.9,-0.3 0.3,-0.1 0.6,-0.1 1,-0.1 1.1,0.1 2,0.5 2.7,1.2 z"
         id="path20"
         inkscape:connector-curvature="0"
         style="fill:#2a2e46" /><path
         class="st0"
         d="m 27.7,54.6 h 2.7 v 2.5 h -2.7 z m 0,3.9 h 2.7 v 10 h -2.7 z"
         id="path22"
         inkscape:connector-curvature="0"
         style="fill:#2a2e46" /><path
         class="st0"
         d="m 42.8,58.5 -4,10 h -2.5 l -4.1,-10 h 2.9 l 2.5,6.7 2.4,-6.7 z"
         id="path24"
         inkscape:connector-curvature="0"
         style="fill:#2a2e46" /><path
         class="st0"
         d="m 53.9,64.3 h -7.6 c 0.1,0.7 0.4,1.2 0.8,1.6 0.4,0.4 1,0.5 1.6,0.5 0.5,0 0.9,-0.1 1.2,-0.3 0.4,-0.2 0.7,-0.5 0.9,-0.8 h 2.9 c -0.4,1.1 -1,2 -1.9,2.6 -0.9,0.6 -1.9,1 -3.1,1 -1.5,0 -2.7,-0.5 -3.7,-1.5 -1,-1 -1.5,-2.3 -1.5,-3.8 0,-0.6 0.1,-1.2 0.3,-1.7 0.2,-0.5 0.4,-1 0.7,-1.5 0.3,-0.4 0.7,-0.8 1.1,-1.1 0.4,-0.3 0.9,-0.6 1.4,-0.7 0.5,-0.2 1.1,-0.3 1.7,-0.3 1,0 1.9,0.2 2.7,0.7 0.8,0.5 1.4,1.1 1.8,1.9 0.4,0.8 0.6,1.7 0.6,2.6 0.2,0.3 0.1,0.5 0.1,0.8 z M 47.2,61 c -0.4,0.3 -0.7,0.8 -0.8,1.4 h 4.9 C 51.2,62 51,61.6 50.8,61.4 50.6,61.1 50.3,60.9 50,60.8 49.7,60.7 49.3,60.6 48.9,60.6 48.2,60.5 47.6,60.7 47.2,61 Z"
         id="path26"
         inkscape:connector-curvature="0"
         style="fill:#2a2e46" /><path
         class="st0"
         d="M 62.3,58.5 V 61 h -1.2 c -0.8,0 -1.3,0.2 -1.6,0.5 -0.3,0.4 -0.5,0.9 -0.5,1.8 v 5.2 h -2.7 v -10 H 58 l 0.5,1.2 c 0.7,-0.9 1.6,-1.3 2.9,-1.3 h 0.9 z"
         id="path28"
         inkscape:connector-curvature="0"
         style="fill:#2a2e46" /><path
         class="st0"
         d="M 65.5,68.4 C 64.9,68.1 64.4,67.7 64,67.1 63.6,66.6 63.5,65.9 63.5,65.2 h 2.6 c 0,0.3 0.1,0.5 0.2,0.8 0.1,0.2 0.3,0.4 0.6,0.4 0.2,0.1 0.5,0.1 0.9,0.1 0.3,0 0.5,0 0.7,-0.1 0.2,-0.1 0.4,-0.2 0.5,-0.3 0.1,-0.2 0.2,-0.3 0.2,-0.5 0,-0.3 -0.2,-0.5 -0.5,-0.7 -0.3,-0.1 -0.8,-0.3 -1.5,-0.4 -0.4,-0.1 -0.7,-0.1 -1,-0.2 C 65.9,64.2 65.6,64.1 65.3,64 64.9,63.8 64.6,63.7 64.4,63.5 64.2,63.3 64,63 63.8,62.7 c -0.2,-0.3 -0.2,-0.8 -0.2,-1.2 0,-0.9 0.4,-1.7 1.1,-2.3 0.7,-0.6 1.7,-0.9 2.9,-0.9 1.2,0 2.2,0.3 2.9,0.9 0.7,0.6 1.1,1.4 1.1,2.4 H 69 c 0,-0.8 -0.5,-1.2 -1.5,-1.2 -0.4,0 -0.8,0.1 -1,0.3 -0.2,0.2 -0.4,0.4 -0.4,0.7 0,0.1 0,0.2 0.1,0.3 0.1,0.1 0.1,0.2 0.2,0.3 0.1,0.1 0.2,0.1 0.4,0.2 0.2,0.1 0.4,0.1 0.5,0.1 l 0.6,0.1 c 0.2,0 0.4,0.1 0.5,0.1 0.1,0 0.3,0.1 0.5,0.1 0.2,0 0.4,0.1 0.5,0.1 0.1,0 0.3,0.1 0.5,0.2 0.2,0.1 0.4,0.2 0.5,0.2 0.1,0.1 0.2,0.2 0.4,0.3 0.2,0.1 0.3,0.2 0.4,0.4 0.1,0.1 0.2,0.3 0.3,0.4 0.1,0.2 0.1,0.3 0.2,0.6 0,0.2 0,0.4 0,0.7 0,1 -0.4,1.9 -1.2,2.5 -0.8,0.6 -1.8,0.9 -3.1,0.9 -0.5,-0.1 -1.3,-0.2 -1.9,-0.5 z"
         id="path30"
         inkscape:connector-curvature="0"
         style="fill:#2a2e46" /><path
         class="st0"
         d="M 74.3,54.6 H 77 v 2.5 h -2.7 z m 0,3.9 H 77 v 10 h -2.7 z"
         id="path32"
         inkscape:connector-curvature="0"
         style="fill:#2a2e46" /><path
         class="st0"
         d="m 86.1,66.1 v 2.4 h -1.9 c -0.7,0 -1.4,-0.1 -1.9,-0.4 -0.5,-0.3 -1,-0.7 -1.2,-1.2 -0.3,-0.5 -0.4,-1.2 -0.4,-1.9 v -4.3 h -1.8 v -0.6 l 4,-4.2 h 0.5 v 2.6 H 86 v 2.2 h -2.7 v 3.9 c 0,0.5 0.1,0.9 0.4,1.1 0.3,0.2 0.6,0.4 1.1,0.4 z"
         id="path34"
         inkscape:connector-curvature="0"
         style="fill:#2a2e46" /><path
         class="st0"
         d="m 97.9,64.3 h -7.6 c 0.1,0.7 0.4,1.2 0.8,1.6 0.4,0.4 1,0.5 1.6,0.5 0.5,0 0.9,-0.1 1.2,-0.3 0.4,-0.2 0.7,-0.5 0.9,-0.8 h 2.9 c -0.4,1.1 -1,2 -1.9,2.6 -0.9,0.6 -1.9,1 -3.1,1 -1.5,0 -2.7,-0.5 -3.7,-1.5 -1,-1 -1.5,-2.3 -1.5,-3.8 0,-0.6 0.1,-1.2 0.3,-1.7 0.2,-0.5 0.4,-1 0.7,-1.5 0.3,-0.4 0.7,-0.8 1.1,-1.1 0.4,-0.3 0.9,-0.6 1.4,-0.7 0.5,-0.2 1.1,-0.3 1.7,-0.3 1,0 1.9,0.2 2.7,0.7 0.8,0.5 1.4,1.1 1.8,1.9 0.4,0.8 0.6,1.7 0.6,2.6 0.2,0.3 0.2,0.5 0.1,0.8 z M 91.3,61 c -0.4,0.3 -0.7,0.8 -0.8,1.4 h 4.9 C 95.3,62 95.1,61.6 94.9,61.4 94.7,61.1 94.4,60.9 94.1,60.8 93.8,60.7 93.4,60.6 93,60.6 92.2,60.5 91.7,60.7 91.3,61 Z m 2.3,-3.6 h -2 l 1,-2.8 h 2.9 z"
         id="path36"
         inkscape:connector-curvature="0"
         style="fill:#2a2e46" /><path
         class="st0"
         d="m 14.6,80.6 c 0,2.1 -0.6,3.8 -1.9,5.1 -1.2,1.3 -2.8,2 -4.8,2 C 6,87.7 4.4,87.1 3.1,85.8 1.8,84.5 1.2,82.9 1.2,81 c 0,-2 0.6,-3.6 1.9,-4.9 1.3,-1.3 2.9,-1.9 4.8,-1.9 1.6,0 3,0.5 4.3,1.4 1.2,0.9 2,2.1 2.3,3.6 H 11.6 C 11.4,78.7 11.1,78.3 10.8,78 10.5,77.7 10,77.4 9.6,77.2 9.1,77 8.6,76.9 8.1,76.9 c -1.2,0 -2.1,0.4 -2.8,1.2 -0.7,0.8 -1.1,1.8 -1.1,3 0,0.8 0.2,1.5 0.5,2.1 0.3,0.6 0.8,1.1 1.4,1.5 0.6,0.3 1.3,0.5 2,0.5 0.6,0 1.1,-0.1 1.6,-0.3 0.5,-0.2 0.9,-0.4 1.3,-0.8 0.4,-0.3 0.6,-0.7 0.8,-1.2 H 7.6 v -2.2 h 7 z"
         id="path38"
         inkscape:connector-curvature="0"
         style="fill:#2a2e46" /><path
         class="st0"
         d="m 22.9,77.3 v 2.6 h -1.2 c -0.8,0 -1.3,0.2 -1.6,0.5 -0.3,0.4 -0.5,0.9 -0.5,1.8 v 5.2 h -2.7 v -10 h 1.7 l 0.5,1.2 c 0.7,-0.9 1.6,-1.3 2.9,-1.3 z"
         id="path40"
         inkscape:connector-curvature="0"
         style="fill:#2a2e46" /><path
         class="st0"
         d="m 34.3,83.1 h -7.6 c 0.1,0.7 0.4,1.2 0.8,1.6 0.4,0.4 1,0.5 1.6,0.5 0.5,0 0.9,-0.1 1.2,-0.3 0.4,-0.2 0.7,-0.5 0.9,-0.8 h 2.9 c -0.4,1.1 -1,2 -1.9,2.6 -0.9,0.6 -1.9,1 -3.1,1 -1.5,0 -2.7,-0.5 -3.7,-1.5 -1,-1 -1.5,-2.3 -1.5,-3.8 0,-0.6 0.1,-1.2 0.3,-1.7 0.2,-0.5 0.4,-1 0.7,-1.5 0.3,-0.4 0.7,-0.8 1.1,-1.1 0.4,-0.3 0.9,-0.6 1.4,-0.7 0.5,-0.2 1.1,-0.3 1.7,-0.3 1,0 1.9,0.2 2.7,0.7 0.8,0.5 1.4,1.1 1.8,1.9 0.4,0.8 0.6,1.7 0.6,2.6 0.1,0.3 0.1,0.5 0.1,0.8 z m -6.7,-3.2 c -0.4,0.3 -0.7,0.8 -0.8,1.4 h 4.9 c -0.1,-0.4 -0.3,-0.8 -0.5,-1 -0.2,-0.3 -0.5,-0.5 -0.8,-0.6 -0.3,-0.1 -0.7,-0.2 -1.1,-0.2 -0.8,-0.1 -1.3,0 -1.7,0.4 z"
         id="path42"
         inkscape:connector-curvature="0"
         style="fill:#2a2e46" /><path
         class="st0"
         d="m 45.1,78.2 c 0.7,0.8 1,1.8 1,3.1 v 6.1 h -2.7 v -5.7 c 0,-1.5 -0.6,-2.3 -1.7,-2.3 -0.5,0 -0.9,0.1 -1.2,0.3 -0.3,0.2 -0.6,0.5 -0.8,0.9 -0.2,0.4 -0.3,0.9 -0.3,1.4 v 5.3 h -2.7 v -10 h 1.9 l 0.5,1.2 c 0.2,-0.2 0.4,-0.4 0.6,-0.6 0.2,-0.2 0.5,-0.3 0.8,-0.5 0.3,-0.1 0.6,-0.2 0.9,-0.3 0.3,-0.1 0.6,-0.1 1,-0.1 1.1,0.1 2,0.5 2.7,1.2 z"
         id="path44"
         inkscape:connector-curvature="0"
         style="fill:#2a2e46" /><path
         class="st0"
         d="m 50.9,87 c -0.8,-0.5 -1.5,-1.1 -1.9,-1.9 -0.5,-0.8 -0.7,-1.7 -0.7,-2.7 0,-1.5 0.5,-2.8 1.5,-3.8 1,-1 2.3,-1.5 3.9,-1.5 1.6,0 2.8,0.5 3.9,1.5 1,1 1.5,2.3 1.5,3.8 0,1.5 -0.5,2.8 -1.6,3.8 -1,1 -2.3,1.5 -3.9,1.5 -0.9,0 -1.9,-0.3 -2.7,-0.7 z m 4.7,-2.7 c 0.5,-0.5 0.7,-1.2 0.7,-2 0,-0.8 -0.2,-1.5 -0.7,-2 -0.5,-0.5 -1.1,-0.8 -1.9,-0.8 -0.8,0 -1.4,0.3 -1.9,0.8 -0.5,0.5 -0.7,1.2 -0.7,2 0,0.4 0.1,0.8 0.2,1.1 0.1,0.3 0.3,0.6 0.5,0.9 0.2,0.2 0.5,0.4 0.8,0.6 0.3,0.2 0.7,0.2 1.1,0.2 0.8,0 1.4,-0.3 1.9,-0.8 z"
         id="path46"
         inkscape:connector-curvature="0"
         style="fill:#2a2e46" /><path
         class="st0"
         d="m 70.7,78.6 c 1,1 1.5,2.3 1.5,3.8 0,1.5 -0.5,2.8 -1.5,3.8 -1,1 -2.3,1.5 -3.8,1.5 -1.2,0 -2.3,-0.4 -3.1,-1.1 l -0.3,0.8 h -2 V 73.7 h 2.7 v 4.2 c 0.8,-0.5 1.7,-0.8 2.8,-0.8 1.4,-0.1 2.7,0.5 3.7,1.5 z m -2.1,5.7 c 0.5,-0.5 0.8,-1.2 0.8,-2 0,-0.5 -0.1,-1 -0.3,-1.4 -0.2,-0.4 -0.6,-0.8 -1,-1 -0.4,-0.2 -0.9,-0.4 -1.4,-0.4 -0.5,0 -1,0.1 -1.4,0.4 -0.4,0.2 -0.8,0.6 -1,1 -0.2,0.4 -0.4,0.9 -0.4,1.4 0,0.8 0.3,1.4 0.8,2 0.5,0.5 1.2,0.8 2,0.8 0.8,0 1.4,-0.3 1.9,-0.8 z"
         id="path48"
         inkscape:connector-curvature="0"
         style="fill:#2a2e46" /><path
         class="st0"
         d="m 74.5,73.7 h 2.7 v 13.7 h -2.7 z"
         id="path50"
         inkscape:connector-curvature="0"
         style="fill:#2a2e46" /><path
         class="st0"
         d="m 89.9,83.1 h -7.6 c 0.1,0.7 0.4,1.2 0.8,1.6 0.4,0.4 1,0.5 1.6,0.5 0.5,0 0.9,-0.1 1.2,-0.3 0.4,-0.2 0.7,-0.5 0.9,-0.8 h 2.9 c -0.4,1.1 -1,2 -1.9,2.6 -0.9,0.6 -1.9,1 -3.1,1 -1.5,0 -2.7,-0.5 -3.7,-1.5 -1,-1 -1.5,-2.3 -1.5,-3.8 0,-0.6 0.1,-1.2 0.3,-1.7 0.2,-0.5 0.4,-1 0.7,-1.5 0.3,-0.5 0.7,-0.8 1.1,-1.1 0.4,-0.3 0.9,-0.6 1.4,-0.7 0.5,-0.1 1.1,-0.3 1.7,-0.3 1,0 1.9,0.2 2.7,0.7 0.8,0.5 1.4,1.1 1.8,1.9 0.4,0.8 0.6,1.7 0.6,2.6 0.1,0.3 0.1,0.5 0.1,0.8 z m -6.7,-3.2 c -0.4,0.3 -0.7,0.8 -0.8,1.4 h 4.9 C 87.2,80.9 87,80.5 86.8,80.3 86.6,80 86.3,79.8 86,79.7 c -0.3,-0.1 -0.7,-0.2 -1.1,-0.2 -0.8,-0.1 -1.3,0 -1.7,0.4 z"
         id="path52"
         inkscape:connector-curvature="0"
         style="fill:#2a2e46" /><path
         class="st0"
         d="m 104.5,84.9 h -5.2 l -0.9,2.5 h -3 l 5.1,-13 h 2.7 l 5.3,13 h -3.1 z m -4.3,-2.5 h 3.4 l -1.7,-4.7 z"
         id="path54"
         inkscape:connector-curvature="0"
         style="fill:#2a2e46" /><path
         class="st0"
         d="m 110.3,73.7 h 2.7 v 13.7 h -2.7 z"
         id="path56"
         inkscape:connector-curvature="0"
         style="fill:#2a2e46" /><path
         class="st0"
         d="m 125.3,78.6 c 1,1 1.5,2.3 1.5,3.8 0,1.5 -0.5,2.8 -1.5,3.8 -1,1 -2.3,1.5 -3.8,1.5 -1,0 -2,-0.3 -2.8,-0.8 V 91 H 116 V 77.3 h 1.8 l 0.5,0.9 c 0.9,-0.8 2,-1.2 3.2,-1.2 1.5,0 2.8,0.6 3.8,1.6 z m -2.1,5.7 c 0.5,-0.5 0.8,-1.2 0.8,-2 0,-0.5 -0.1,-1 -0.4,-1.4 -0.2,-0.4 -0.6,-0.8 -1,-1 -0.4,-0.2 -0.9,-0.4 -1.4,-0.4 -0.5,0 -1,0.1 -1.4,0.4 -0.4,0.2 -0.7,0.6 -1,1 -0.2,0.4 -0.3,0.9 -0.3,1.4 0,0.8 0.3,1.5 0.8,2 0.5,0.5 1.2,0.8 2,0.8 0.7,0 1.4,-0.3 1.9,-0.8 z"
         id="path58"
         inkscape:connector-curvature="0"
         style="fill:#2a2e46" /><path
         class="st0"
         d="m 138.8,83.1 h -7.6 c 0.1,0.7 0.4,1.2 0.8,1.6 0.4,0.4 1,0.5 1.6,0.5 0.5,0 0.9,-0.1 1.2,-0.3 0.4,-0.2 0.7,-0.5 0.9,-0.8 h 2.9 c -0.4,1.1 -1,2 -1.9,2.6 -0.9,0.6 -1.9,1 -3.1,1 -1.5,0 -2.7,-0.5 -3.7,-1.5 -1,-1 -1.5,-2.3 -1.5,-3.8 0,-0.6 0.1,-1.2 0.3,-1.7 0.2,-0.5 0.4,-1 0.7,-1.5 0.3,-0.4 0.7,-0.8 1.1,-1.1 0.4,-0.3 0.9,-0.6 1.4,-0.7 0.5,-0.2 1.1,-0.3 1.7,-0.3 1,0 1.9,0.2 2.7,0.7 0.8,0.5 1.4,1.1 1.8,1.9 0.4,0.8 0.6,1.7 0.6,2.6 0.1,0.3 0.1,0.5 0.1,0.8 z m -6.7,-3.2 c -0.4,0.3 -0.7,0.8 -0.8,1.4 h 4.9 c -0.1,-0.4 -0.3,-0.8 -0.5,-1 -0.2,-0.3 -0.5,-0.5 -0.8,-0.6 -0.3,-0.1 -0.7,-0.2 -1.1,-0.2 -0.8,-0.1 -1.3,0 -1.7,0.4 z"
         id="path60"
         inkscape:connector-curvature="0"
         style="fill:#2a2e46" /><path
         class="st0"
         d="m 142.5,87.2 c -0.6,-0.3 -1.1,-0.7 -1.5,-1.3 -0.4,-0.5 -0.5,-1.2 -0.5,-1.9 h 2.6 c 0,0.3 0.1,0.5 0.2,0.8 0.1,0.2 0.3,0.4 0.6,0.4 0.2,0.1 0.5,0.1 0.9,0.1 0.3,0 0.5,0 0.7,-0.1 0.2,-0.1 0.4,-0.2 0.5,-0.3 0.1,-0.2 0.2,-0.3 0.2,-0.5 0,-0.3 -0.2,-0.5 -0.5,-0.7 -0.3,-0.1 -0.8,-0.3 -1.5,-0.4 -0.4,-0.1 -0.7,-0.1 -1,-0.2 -0.3,-0.1 -0.6,-0.2 -0.9,-0.3 -0.4,-0.2 -0.7,-0.3 -0.9,-0.5 -0.2,-0.2 -0.4,-0.5 -0.6,-0.8 -0.2,-0.3 -0.2,-0.8 -0.2,-1.2 0,-0.9 0.4,-1.7 1.1,-2.3 0.7,-0.6 1.7,-0.9 2.9,-0.9 1.2,0 2.2,0.3 2.9,0.9 0.7,0.6 1.1,1.4 1.1,2.4 H 146 c 0,-0.8 -0.5,-1.2 -1.5,-1.2 -0.4,0 -0.8,0.1 -1,0.3 -0.2,0.2 -0.4,0.4 -0.4,0.7 0,0.1 0,0.2 0.1,0.3 0.1,0.1 0.1,0.2 0.2,0.3 0.1,0.1 0.2,0.1 0.4,0.2 0.2,0.1 0.4,0.1 0.5,0.1 l 0.6,0.1 c 0.2,0 0.4,0.1 0.5,0.1 0.1,0 0.3,0.1 0.5,0.1 0.2,0 0.4,0.1 0.5,0.1 0.1,0 0.3,0.1 0.5,0.2 0.2,0.1 0.4,0.2 0.5,0.2 0.1,0.1 0.2,0.2 0.4,0.3 0.2,0.1 0.3,0.2 0.4,0.4 0.1,0.1 0.2,0.3 0.3,0.4 0.1,0.2 0.1,0.3 0.2,0.6 0,0.2 0,0.4 0,0.7 0,1 -0.4,1.9 -1.2,2.5 -0.8,0.6 -1.8,0.9 -3.1,0.9 -0.5,0 -1.3,-0.2 -1.9,-0.5 z"
         id="path62"
         inkscape:connector-curvature="0"
         style="fill:#2a2e46" /></g></g></svg>